<?xml version="1.0" encoding="UTF-8"?>
<svg id="Layer_1" xmlns="http://www.w3.org/2000/svg" version="1.1" viewBox="0 0 100 100">
  <!-- Generator: Adobe Illustrator 30.1.0, SVG Export Plug-In . SVG Version: 2.1.1 Build 136)  -->
  <defs>
    <style>
      .st0 {
        fill: #bff747;
      }
    </style>
  </defs>
  <path class="st0" d="M58.39,65.09c.33-1.8-.07-3.36-1.2-4.7l-5.59-6.57c-2.2-2.35-4.59-3.13-7.18-2.35-2.66.86-4.42,2.94-5.29,6.22-.47,2.11-1.9,8.26-4.29,18.44-.27,1.17-.43,2.04-.5,2.58-3.73,16.28-3.36,14.52-4.09,17.73-.6,1.96-1.66,2.94-3.19,2.94H7.32c-1.46,0-2.63-.71-3.49-2.11-.86-1.33-1.1-2.78-.7-4.34,2.53-11.2,3.29-14.4,7.48-32.64,3.19-14.09,5.49-24.31,6.88-30.65.6-2.66,1.73-4.93,3.39-6.81l14.96-17.61c2.53-3.06,5.62-4.58,9.28-4.58h38.81c2.86,0,5.42.98,7.68,2.94,2.13,1.8,3.66,4.15,4.59,7.05,1,3.13,1.13,6.26.4,9.39-.8,3.68-1.86,8.38-3.19,14.09-.2.78-.47,1.92-.8,3.4-4.45,19.57-7.78,34.29-9.97,44.15-.67,1.96-1.76,2.94-3.29,2.94h-19.65c-1.46,0-2.63-.71-3.49-2.11-.87-1.33-1.13-2.78-.8-4.34l2.99-13.03ZM50.61,35.27h11.27c1,0,1.86-.35,2.59-1.06.8-.71,1.33-1.64,1.6-2.82l1.99-8.81c.26-2.04-.27-3.48-1.6-4.35-1.33-.94-2.66-.74-3.99.59l-12.47,14.68c-.27.31-.33.67-.2,1.06.13.47.4.7.8.7Z"/>
</svg>