<?xml version="1.0" encoding="UTF-8"?>
<svg id="Layer_1" xmlns="http://www.w3.org/2000/svg" version="1.1" viewBox="0 0 121 25">
  <!-- Generator: Adobe Illustrator 30.1.0, SVG Export Plug-In . SVG Version: 2.1.1 Build 136)  -->
  <defs>
    <style>
      .st0 {
        fill: #fff;
      }

      .st1 {
        fill: #bff747;
      }
    </style>
  </defs>
  <g>
    <path class="st0" d="M51.43,23.13l3.62-13.49c.08-.49-.08-.85-.46-1.06-.38-.23-.76-.18-1.14.14l-5.45,5.42c-.15.15-.26.34-.31.57l-2.48,9.27c-.17.46-.48.68-.91.68h-5.65c-.42,0-.75-.16-1-.48s-.31-.67-.2-1.06l3.14-11.78c.17-.65.49-1.2.97-1.65l4.28-4.28c.72-.74,1.61-1.11,2.65-1.11h6.88c1.24,0,2.23.49,2.97,1.48.08.1.15.2.23.31.17.21.36.23.57.06l.74-.74c.74-.74,1.63-1.11,2.65-1.11h6.99c.8,0,1.52.24,2.17.71.63.44,1.07,1.01,1.34,1.71.27.74.29,1.5.08,2.28l-3.99,14.98c-.19.46-.5.68-.94.68h-5.62c-.42,0-.75-.16-1-.48-.25-.32-.31-.67-.2-1.06l3.59-13.49c.07-.3,0-.58-.26-.83-.25-.23-.52-.32-.83-.29-.3.06-.52.31-.65.77l-.91,3.42c-.11.42-.29,1.06-.54,1.94,0,.02,0,.04-.03.06l-2.48,9.27c-.17.46-.48.68-.91.68h-5.71c-.4,0-.72-.16-.97-.48-.25-.32-.32-.67-.23-1.06Z"/>
    <path class="st0" d="M82.78,9.78c-.21.76-.52,1.9-.94,3.42-.04.19-.08.33-.11.43.02.15.09.19.23.11.4-.42.89-.63,1.48-.63h3.17c.17,0,.31.07.43.2.11.15.14.31.08.49-.06.23-.15.58-.28,1.05-.17.65-.3,1.14-.4,1.48-.08.27-.23.48-.46.66-.21.17-.46.26-.74.26h-4.05c-.28,0-.46.13-.51.4-.08.23-.17.57-.28,1.03-.11.4-.2.7-.26.91-.06.25,0,.47.17.68.15.19.35.28.6.28h4.11c.57-.06.94-.36,1.11-.91.04-.13.09-.32.17-.57.17-.47.47-.71.91-.71h5.65c.4,0,.72.16.97.48.25.32.32.68.23,1.08-.11.42-.28,1.04-.51,1.85-.23.87-.4,1.53-.51,1.97-.23.61-.64.91-1.23.91h-19.4c-.4,0-.72-.16-.97-.48-.27-.32-.34-.68-.23-1.08.46-1.71,1.14-4.27,2.05-7.67,1.01-3.71,1.76-6.49,2.25-8.33.21-.84.65-1.51,1.31-2.03.67-.51,1.43-.77,2.28-.77h12.12c1.03,0,1.9.37,2.63,1.11l1.68,1.68c.99,1.03,1.31,2.23.97,3.59l-.37,1.48c-.19.48-.5.71-.94.71h-6.56c-.17,0-.31-.08-.43-.23-.1-.13-.12-.28-.09-.46l.14-.57c.13-.48.03-.88-.31-1.23l-1.6-1.6c-.42-.4-.91-.61-1.48-.63h-.03c-.48,0-.9.14-1.28.43-.4.29-.66.68-.77,1.17Z"/>
    <path class="st0" d="M95.08,23.1c.53-1.98,1.33-4.96,2.4-8.96.85-3.14,1.49-5.49,1.91-7.05.23-.84.67-1.51,1.31-2.03.67-.51,1.43-.77,2.28-.77h12.13c1.03,0,1.91.37,2.65,1.11l1.68,1.68c.99,1.03,1.31,2.23.97,3.59l-1.88,6.96c-.17.63-.48,1.18-.94,1.66l-4.28,4.28c-.74.72-1.63,1.08-2.65,1.08h-14.35c-.42,0-.75-.16-1-.48-.25-.32-.32-.68-.23-1.08ZM104.09,19.36c-.1.49.06.85.46,1.06.38.23.76.18,1.14-.14l5.42-5.42c.17-.17.29-.36.34-.57.08-.3.19-.75.34-1.34.17-.59.29-1.03.37-1.31.11-.48,0-.88-.34-1.23l-1.6-1.6c-.63-.57-1.31-.75-2.05-.54-.74.19-1.25.69-1.51,1.51-.72,2.7-1.58,5.9-2.57,9.59Z"/>
  </g>
  <g>
    <path class="st1" d="M16.32,15.99c.09-.44-.02-.82-.34-1.14l-1.6-1.6c-.63-.57-1.31-.76-2.05-.57-.76.21-1.26.71-1.51,1.51-.13.51-.54,2.01-1.23,4.48-.08.29-.12.49-.14.63-1.07,3.96-.96,3.53-1.17,4.31-.17.48-.48.71-.91.71H1.71c-.42,0-.75-.17-1-.51-.25-.32-.31-.68-.2-1.06.72-2.72.94-3.5,2.14-7.93.91-3.42,1.57-5.91,1.97-7.45.17-.65.49-1.2.97-1.65L9.87,1.44c.72-.74,1.61-1.11,2.65-1.11h11.1c.82,0,1.55.24,2.2.71.61.44,1.05,1.01,1.31,1.71.29.76.32,1.52.11,2.28-.23.89-.53,2.04-.91,3.42-.06.19-.13.47-.23.83-1.27,4.76-2.23,8.33-2.85,10.73-.19.48-.5.71-.94.71h-5.62c-.42,0-.75-.17-1-.51-.25-.32-.32-.68-.23-1.06l.86-3.17ZM14.09,8.75h3.22c.29,0,.53-.09.74-.26.23-.17.38-.4.46-.68l.57-2.14c.08-.49-.08-.85-.46-1.06-.38-.23-.76-.18-1.14.14l-3.57,3.57c-.08.08-.1.16-.06.26.04.11.11.17.23.17Z"/>
    <path class="st1" d="M29.02,18.81l-1.6-1.6c-.63-.57-1.31-.76-2.05-.57-.74.19-1.25.68-1.51,1.48l-1.51,5.62c-.08.29-.22.51-.43.68-.23.15-.49.23-.77.23h-5.42c-.4,0-.72-.16-.97-.49s-.32-.68-.23-1.06c.38-1.43.99-3.85,1.75-6.69,1.39-5.21,2.4-8.82,3.1-11.43.17-.48.48-.71.91-.71h5.65c.42,0,.75.16,1,.49.25.34.24.95.12,1.33l-1.32,5.03c-.11.4-.05.76.2,1.08.25.32.58.49,1,.49h3.74c.38,0,.65-.21.8-.63l1.91-7.08c.17-.48.47-.71.91-.71h4.57c.69,0,1.23.28,1.63.83.42.53.54,1.13.37,1.8-.1.32-.18.65-.26.97-.27,1.01-.67,2.52-1.23,4.54-1.37,5.14-2.4,8.99-3.08,11.55-.19.46-.5.68-.94.68h-5.62c-.42,0-.75-.16-1-.49s-.31-.68-.2-1.08c.06-.25.15-.63.29-1.14.25-.87.43-1.53.54-1.97.11-.46,0-.85-.34-1.17Z"/>
  </g>
</svg>