<?xml version="1.0" encoding="UTF-8"?>
<svg id="Layer_1" xmlns="http://www.w3.org/2000/svg" version="1.1" viewBox="0 0 97 20">
  <!-- Generator: Adobe Illustrator 30.1.0, SVG Export Plug-In . SVG Version: 2.1.1 Build 136)  -->
  <defs>
    <style>
      .st0 {
        fill: #fff;
      }

      .st1 {
        fill: #bff747;
      }
    </style>
  </defs>
  <g>
    <path class="st0" d="M42.02,17.79l2.66-9.9c.06-.36-.06-.62-.33-.77-.28-.17-.56-.13-.84.1l-4,3.98c-.11.11-.19.25-.23.42l-1.82,6.8c-.13.34-.35.5-.67.5h-4.14c-.31,0-.55-.12-.73-.36s-.23-.49-.15-.77l2.3-8.64c.13-.47.36-.88.71-1.21l3.14-3.14c.53-.54,1.18-.82,1.95-.82h5.04c.91,0,1.63.36,2.18,1.09.06.07.11.15.17.23.13.15.26.17.42.04l.54-.54c.54-.54,1.19-.82,1.95-.82h5.13c.59,0,1.12.17,1.59.52.46.32.79.74.98,1.26.2.54.22,1.1.06,1.67l-2.93,10.98c-.14.34-.37.5-.69.5h-4.12c-.31,0-.55-.12-.73-.36-.18-.24-.23-.49-.15-.77l2.64-9.9c.05-.22,0-.43-.19-.61-.18-.17-.38-.24-.61-.21-.22.04-.38.23-.48.57l-.67,2.51c-.08.31-.22.78-.4,1.42,0,.01,0,.03-.02.04l-1.82,6.8c-.13.34-.35.5-.67.5h-4.18c-.29,0-.53-.12-.71-.36-.18-.24-.24-.49-.17-.77Z"/>
    <path class="st0" d="M65.02,8c-.15.56-.38,1.39-.69,2.51-.03.14-.06.24-.08.31.01.11.07.14.17.08.29-.31.66-.46,1.09-.46h2.32c.13,0,.23.05.31.15.08.11.1.23.06.36-.04.17-.11.43-.21.77-.13.47-.22.84-.29,1.09-.06.2-.17.36-.33.48-.15.13-.33.19-.54.19h-2.97c-.21,0-.33.1-.38.29-.06.17-.13.42-.21.75-.08.29-.15.52-.19.67-.04.18,0,.35.13.5.11.14.26.21.44.21h3.01c.42-.04.69-.26.82-.67.03-.1.07-.24.13-.42.13-.35.35-.52.67-.52h4.14c.29,0,.53.12.71.36.18.24.24.5.17.8-.08.31-.21.76-.38,1.36-.17.64-.29,1.12-.38,1.44-.17.45-.47.67-.9.67h-14.23c-.29,0-.53-.12-.71-.36-.2-.24-.25-.5-.17-.79.33-1.26.84-3.13,1.51-5.63.74-2.72,1.29-4.76,1.65-6.11.15-.61.47-1.11.96-1.49.49-.38,1.05-.57,1.67-.57h8.89c.75,0,1.39.27,1.93.82l1.23,1.23c.73.75.96,1.63.71,2.64l-.27,1.09c-.14.35-.37.52-.69.52h-4.81c-.13,0-.23-.06-.31-.17-.07-.1-.09-.21-.06-.33l.1-.42c.1-.35.02-.65-.23-.9l-1.17-1.17c-.31-.29-.67-.45-1.09-.46h-.02c-.35,0-.66.1-.94.31-.29.21-.48.5-.57.86Z"/>
    <path class="st0" d="M74.03,17.77c.39-1.45.98-3.64,1.76-6.57.63-2.3,1.09-4.02,1.4-5.17.17-.61.49-1.11.96-1.49.49-.38,1.05-.57,1.67-.57h8.89c.75,0,1.4.27,1.95.82l1.23,1.23c.72.75.96,1.63.71,2.64l-1.38,5.1c-.13.46-.36.87-.69,1.21l-3.14,3.14c-.54.53-1.19.79-1.95.79h-10.52c-.31,0-.55-.12-.73-.36-.18-.24-.24-.5-.17-.79ZM80.65,15.03c-.07.36.04.62.33.77.28.17.56.13.84-.1l3.97-3.98c.13-.13.21-.26.25-.42.06-.22.14-.55.25-.98.13-.43.22-.75.27-.96.08-.35,0-.65-.25-.9l-1.17-1.17c-.46-.42-.96-.55-1.51-.4-.54.14-.91.51-1.11,1.11-.53,1.98-1.16,4.32-1.88,7.03Z"/>
  </g>
  <g>
    <path class="st1" d="M16.27,12.56c.07-.32-.01-.6-.25-.84l-1.17-1.17c-.46-.42-.96-.56-1.51-.42-.56.15-.93.52-1.11,1.11-.1.38-.4,1.47-.9,3.29-.06.21-.09.36-.1.46-.78,2.9-.7,2.59-.86,3.16-.13.35-.35.52-.67.52h-4.14c-.31,0-.55-.13-.73-.38-.18-.24-.23-.5-.15-.77.53-2,.69-2.57,1.57-5.82.67-2.51,1.15-4.33,1.44-5.46.13-.47.36-.88.71-1.21l3.14-3.14c.53-.54,1.18-.82,1.95-.82h8.14c.6,0,1.14.17,1.61.52.45.32.77.74.96,1.26.21.56.24,1.12.08,1.67-.17.66-.39,1.49-.67,2.51-.04.14-.1.34-.17.61-.93,3.49-1.63,6.11-2.09,7.87-.14.35-.37.52-.69.52h-4.12c-.31,0-.55-.13-.73-.38-.18-.24-.24-.5-.17-.77l.63-2.32ZM14.64,7.25h2.36c.21,0,.39-.06.54-.19.17-.13.28-.29.33-.5l.42-1.57c.06-.36-.06-.62-.33-.77-.28-.17-.56-.13-.84.1l-2.62,2.62c-.06.06-.07.12-.04.19.03.08.08.13.17.13Z"/>
    <path class="st1" d="M25.59,14.62l-1.17-1.17c-.46-.42-.96-.56-1.51-.42-.54.14-.91.5-1.11,1.09l-1.11,4.12c-.06.21-.16.38-.31.5-.17.11-.36.17-.56.17h-3.98c-.29,0-.53-.12-.71-.36s-.24-.5-.17-.77c.28-1.05.72-2.82,1.28-4.9,1.02-3.82,1.76-6.47,2.28-8.38.13-.35.35-.52.67-.52h4.14c.31,0,.55.12.73.36.18.25.17.7.09.97l-.97,3.69c-.08.29-.04.56.15.79.18.24.43.36.73.36h2.74c.28,0,.47-.15.59-.46l1.4-5.19c.12-.35.35-.52.67-.52h3.35c.5,0,.9.2,1.19.61.31.39.4.83.27,1.32-.07.24-.13.47-.19.71-.2.74-.49,1.85-.9,3.33-1,3.77-1.76,6.59-2.26,8.47-.14.33-.37.5-.69.5h-4.12c-.31,0-.55-.12-.73-.36s-.23-.5-.15-.8c.04-.18.11-.46.21-.84.18-.64.31-1.12.4-1.44.08-.33,0-.62-.25-.86Z"/>
  </g>
</svg>