<?xml version="1.0" encoding="UTF-8"?>
<svg id="Layer_1" xmlns="http://www.w3.org/2000/svg" version="1.1" viewBox="0 0 97 20">
  <!-- Generator: Adobe Illustrator 30.2.1, SVG Export Plug-In . SVG Version: 2.1.1 Build 1)  -->
  <defs>
    <style>
      .st0, .st1 {
        fill: #fff;
      }

      .st1 {
        stroke: #fff;
        stroke-miterlimit: 10;
        stroke-width: .8px;
      }

      .st2 {
        fill: #bff747;
      }
    </style>
  </defs>
  <path class="st2" d="M20.3.4c-1.6-.3-3.1.7-3.4,2.3l-1,4.7c0,.2-.1.3-.2.4-.3.4-.9.6-1.4.3-.4-.2-.6-.7-.5-1.1l.6-2.9v-.3c.2-.8.1-1.6-.4-2.4C13.2,0,11.4-.4,10,.5L1.4,6.2c-1.4.9-1.8,2.9-.7,4.2.9,1.2,2.7,1.4,4,.5h.2c.4-.3,1-.3,1.4,0,.3.2.5.6.5,1.1v.6c-.1,0-1.2,1.6-1.2,1.6-.9,1.3-.5,3.1.8,4s3.1.5,4-.8l1.8-2.7h0c.3-.4,1.1-.5,1.5-.2.4.2.6.7.5,1.1l-.2.8c-.3,1.4.5,2.9,1.9,3.3.1,0,.2,0,.4.1,1.6.3,3.1-.7,3.4-2.3l2.9-13.8c.3-1.6-.7-3.1-2.3-3.4v.1Z"/>
  <g>
    <g>
      <path class="st1" d="M30.86,1.33l-4.3,11.3c-.2.4.2.9.6.9h2.1c.3,0,.5-.2.6-.4l.5-1.4c0-.3.4-.4.6-.4h3.6c.3,0,.5.2.6.4l.5,1.4c0,.3.4.4.6.4h2.1c.5,0,.8-.5.6-.9l-4.3-11.3c0-.3-.4-.4-.6-.4h-2.7c-.3,0-.5.2-.6.4h.1ZM31.36,8.93l1.4-4.3,1.4,4.3h-2.9.1Z"/>
      <path class="st1" d="M48.36,5.93h-3.2c-.4,0-.7-.3-.7-.7V1.63c0-.4-.3-.7-.7-.7h-1.9c-.4,0-.7.3-.7.7v11.3c0,.4.3.7.7.7h1.9c.4,0,.7-.3.7-.7v-3.8c0-.4.3-.7.7-.7h3.2c.4,0,.7.3.7.7v3.8c0,.4.3.7.7.7h1.9c.4,0,.7-.3.7-.7V1.63c0-.4-.3-.7-.7-.7h-1.9c-.4,0-.7.3-.7.7v3.6c0,.4-.3.7-.7.7Z"/>
      <path class="st1" d="M61.96,6.53l-2.8-5.2c-.1-.2-.3-.4-.6-.4h-2.4c-.4,0-.7.3-.7.7v11.3c0,.4.3.7.7.7h1.9c.4,0,.7-.3.7-.7v-3.8c0-.7.9-.9,1.3-.3l1.1,1.9c.1.2.3.3.6.3h1.7c.2,0,.5-.1.6-.3l1.1-1.9c.3-.6,1.3-.4,1.3.3v3.8c0,.4.3.7.7.7h1.9c.4,0,.7-.3.7-.7V1.63c0-.4-.3-.7-.7-.7h-2.4c-.2,0-.5.1-.6.4l-2.8,5.2c-.3.5-.9.5-1.2,0h-.1Z"/>
      <path class="st1" d="M73.46,13.53h8.7c.4,0,.7-.3.7-.7v-1.2c0-.4-.3-.7-.7-.7h-5.4c-.4,0-.7-.3-.7-.7v-1.3c0-.4.3-.7.7-.7h4c.4,0,.7-.3.7-.7v-1.2c0-.4-.3-.7-.7-.7h-4c-.4,0-.7-.3-.7-.7v-1.1c0-.4.3-.7.7-.7h5.4c.4,0,.7-.3.7-.7v-1.2c0-.4-.3-.7-.7-.7h-8.7c-.4,0-.7.3-.7.7v11.3c0,.4.3.7.7.7v.3Z"/>
      <path class="st1" d="M95.46,1.93c-.7-.7-1.7-1.1-3.1-1.1h-6.4c-.4,0-.7.3-.7.7v11.3c0,.4.3.7.7.7h6.4c1.4,0,2.4-.4,3.1-1.1s1.1-1.7,1.1-3.1v-4.3c0-1.4-.4-2.4-1.1-3.1ZM93.26,8.73c0,1.3-1,2.3-2.3,2.3h-1.7c-.4,0-.7-.3-.7-.7v-6.2c0-.4.3-.7.7-.7h1.7c1.3,0,2.3,1,2.3,2.3v3Z"/>
    </g>
    <g>
      <path class="st0" d="M25.98,18.26h1.09c0,.25.06.42.19.54s.32.17.61.17.32-.04.42-.11.15-.19.15-.32-.06-.29-.17-.36-.31-.17-.59-.27-.52-.19-.69-.27c-.59-.29-.88-.69-.88-1.18s.08-.48.21-.67c.15-.19.34-.34.61-.44s.57-.15.9-.15.61.06.88.17c.25.11.46.29.59.5s.21.46.21.73h-1.09c0-.19-.06-.32-.17-.42-.11-.1-.27-.15-.46-.15s-.34.04-.46.13c-.11.08-.17.19-.17.32s.06.23.19.31c.11.1.34.19.65.29.31.1.57.21.76.32.48.29.73.67.73,1.17s-.15.71-.44.94c-.31.23-.71.34-1.22.34s-.69-.06-.99-.19c-.29-.13-.52-.31-.67-.54-.15-.23-.23-.5-.23-.78l.04-.06Z"/>
      <path class="st0" d="M34.7,18.88c.11-.1.25-.15.42-.15s.31.06.42.15c.11.1.17.23.17.38s-.06.29-.17.38c-.11.1-.25.15-.42.15s-.31-.06-.42-.15c-.11-.1-.15-.23-.15-.38s.06-.27.17-.38h-.02Z"/>
      <path class="st0" d="M38.47,17.37c0-.44.11-.82.27-1.17.15-.32.38-.59.67-.76s.63-.27,1.01-.27c.55,0,.99.13,1.3.38s.5.63.54,1.15h-1.05c-.04-.25-.11-.44-.25-.54s-.31-.15-.54-.15-.48.11-.63.34c-.15.23-.23.55-.23.99v.27c0,.46.08.78.23,1.01.15.23.4.34.73.34s.5-.06.63-.19v-.71h-.75v-.75h1.83v1.85c-.17.19-.42.34-.73.44s-.67.17-1.05.17c-.59,0-1.05-.17-1.41-.54-.34-.36-.54-.86-.57-1.51v-.38h0Z"/>
      <path class="st0" d="M44.98,15.25c.54,0,.96.11,1.26.36.31.23.46.57.46,1.01s-.06.57-.19.78-.32.38-.59.5l.94,1.82v.04h-1.17l-.8-1.59h-.59v1.59h-1.09v-4.51h1.78ZM44.3,17.33h.69c.21,0,.36-.06.46-.15.1-.11.15-.27.15-.46s-.06-.34-.15-.46-.27-.17-.46-.17h-.69v1.24Z"/>
      <path class="st0" d="M32.07,15.25c.54,0,.96.11,1.26.36.31.23.46.57.46,1.01s-.06.57-.19.78-.32.38-.59.5l.94,1.82v.04h-1.17l-.8-1.59h-.59v1.59h-1.09v-4.51h1.78ZM31.38,17.33h.69c.21,0,.36-.06.46-.15.1-.11.15-.27.15-.46s-.06-.34-.15-.46-.27-.17-.46-.17h-.69v1.24Z"/>
      <path class="st0" d="M48.96,15.25h1.01l1.66,4.51h-1.17l-.27-.84h-1.49l-.27.84h-1.17l1.64-4.51h.04ZM49.95,18.08l-.48-1.57-.48,1.57h.97-.02Z"/>
      <path class="st0" d="M52.28,19.76v-4.51h1.8c.34,0,.65.06.92.19s.48.31.61.54c.15.23.21.5.21.8,0,.44-.15.78-.48,1.05-.31.27-.75.4-1.3.4h-.69v1.53h-1.09.02ZM53.35,17.39h.71c.21,0,.36-.06.48-.15s.17-.25.17-.44-.06-.38-.17-.5c-.11-.13-.27-.19-.46-.19h-.73v1.3-.02Z"/>
      <path class="st0" d="M56.7,19.76v-4.51h1.09v1.78h1.61v-1.78h1.07v4.51h-1.07v-1.87h-1.61v1.87h-1.09Z"/>
      <path class="st0" d="M62.62,19.76h-1.09v-4.51h1.09v4.51Z"/>
      <path class="st0" d="M63.56,17.37c0-.44.08-.82.23-1.17.15-.32.38-.59.67-.76s.63-.27.99-.27c.55,0,.99.15,1.32.44.32.29.52.69.57,1.18h-1.09c0-.27-.08-.48-.21-.59s-.32-.17-.59-.17-.46.1-.59.31-.19.52-.19.97v.32c0,.48.06.82.17,1.03s.32.31.63.31.44-.06.57-.17.21-.31.21-.55h1.07c0,.31-.1.59-.25.82-.15.25-.36.42-.65.55-.29.13-.59.19-.96.19-.59,0-1.05-.19-1.4-.57s-.52-.94-.52-1.62v-.25Z"/>
      <path class="st0" d="M70,19.76v-4.51h1.45c.4,0,.76.1,1.07.27.32.17.57.44.75.76s.27.69.27,1.11v.21c0,.42-.1.78-.27,1.11s-.42.57-.73.76-.67.29-1.05.29h-1.49ZM71.09,16.09v2.83h.38c.31,0,.55-.11.73-.32.17-.23.25-.55.25-.99v-.19c0-.44-.08-.76-.25-.97-.17-.23-.4-.32-.73-.32h-.36l-.02-.02Z"/>
      <path class="st0" d="M77.51,15.25v.84h-2.03v.96h1.7v.8h-1.7v1.07h2.01v.84h-3.1v-4.51h3.12Z"/>
      <path class="st0" d="M78.12,18.29h1.09c0,.25.06.42.19.54.13.11.32.17.61.17s.32-.04.42-.11.15-.19.15-.32-.06-.29-.17-.36c-.11-.1-.31-.17-.59-.27s-.52-.19-.69-.27c-.59-.29-.88-.69-.88-1.18s.08-.48.21-.67c.15-.19.34-.34.61-.44.27-.11.57-.15.9-.15s.61.06.88.17c.25.11.46.29.59.5s.21.46.21.73h-1.09c0-.19-.06-.32-.17-.42s-.27-.15-.46-.15-.34.04-.46.13c-.11.08-.17.19-.17.32s.06.23.19.31c.11.1.34.19.65.29s.57.21.76.32c.48.29.73.67.73,1.17s-.15.71-.44.94-.71.34-1.22.34-.69-.06-.99-.19c-.29-.13-.52-.31-.67-.54-.15-.23-.23-.5-.23-.78l.04-.06Z"/>
      <path class="st0" d="M83.71,19.76h-1.09v-4.51h1.09v4.51Z"/>
      <path class="st0" d="M84.68,17.37c0-.44.08-.82.23-1.17.15-.32.38-.59.67-.76s.63-.27,1.01-.27c.55,0,.99.13,1.3.38.31.25.5.63.54,1.15h-1.05c-.04-.25-.11-.44-.25-.54s-.31-.15-.54-.15-.48.11-.63.34c-.15.23-.23.55-.23.99v.27c0,.46.08.78.23,1.01.15.23.4.34.73.34s.5-.06.63-.19v-.71h-.75v-.75h1.83v1.85c-.17.19-.42.34-.73.44-.32.11-.67.17-1.05.17-.59,0-1.05-.17-1.41-.54-.34-.36-.54-.86-.57-1.51v-.38h.04Z"/>
      <path class="st0" d="M92.5,15.25v.84h-2.03v.96h1.7v.8h-1.7v1.07h2.01v.84h-3.1v-4.51h3.12Z"/>
      <path class="st0" d="M95.02,15.25c.54,0,.96.11,1.26.36.31.23.46.57.46,1.01s-.06.57-.19.78-.32.38-.59.5l.94,1.82v.04h-1.17l-.8-1.59h-.59v1.59h-1.09v-4.51h1.78ZM94.33,17.33h.69c.21,0,.36-.06.46-.15.1-.11.15-.27.15-.46s-.06-.34-.15-.46-.27-.17-.46-.17h-.69v1.24Z"/>
    </g>
  </g>
</svg>