<?xml version="1.0" encoding="UTF-8"?>
<svg id="Layer_1" xmlns="http://www.w3.org/2000/svg" version="1.1" viewBox="0 0 481 100">
  <!-- Generator: Adobe Illustrator 30.1.0, SVG Export Plug-In . SVG Version: 2.1.1 Build 136)  -->
  <defs>
    <style>
      .st0 {
        fill: #fff;
      }

      .st1 {
        fill: #bff747;
      }
    </style>
  </defs>
  <g>
    <path class="st0" d="M204.94,91.66l14.2-52.89c.3-1.94-.3-3.32-1.79-4.14-1.49-.89-2.98-.71-4.47.56l-21.36,21.25c-.6.6-1.01,1.34-1.23,2.23l-9.73,36.34c-.67,1.79-1.86,2.68-3.58,2.68h-22.14c-1.64,0-2.95-.63-3.91-1.9-.97-1.27-1.23-2.65-.78-4.14l12.3-46.18c.67-2.53,1.94-4.7,3.8-6.49l16.77-16.77c2.83-2.91,6.3-4.36,10.4-4.36h26.95c4.85,0,8.72,1.94,11.63,5.81.3.37.6.78.89,1.23.67.82,1.42.9,2.24.23l2.91-2.91c2.91-2.91,6.37-4.36,10.4-4.36h27.39c3.14,0,5.97.93,8.5,2.79,2.46,1.72,4.2,3.95,5.25,6.71,1.05,2.91,1.16,5.89.33,8.95l-15.66,58.71c-.74,1.79-1.97,2.68-3.68,2.68h-22.03c-1.64,0-2.94-.63-3.91-1.9-.97-1.27-1.23-2.65-.78-4.14l14.09-52.89c.29-1.19-.04-2.27-1.01-3.24-.97-.9-2.05-1.27-3.24-1.12-1.2.22-2.05,1.23-2.57,3.02l-3.59,13.42c-.44,1.64-1.16,4.17-2.12,7.61,0,.07-.03.15-.11.22l-9.73,36.34c-.67,1.79-1.87,2.68-3.58,2.68h-22.37c-1.57,0-2.83-.63-3.8-1.9-.97-1.27-1.27-2.65-.89-4.14Z"/>
    <path class="st0" d="M327.83,39.33c-.82,2.98-2.05,7.46-3.69,13.42-.15.74-.3,1.31-.45,1.67.07.6.37.75.89.45,1.57-1.64,3.51-2.46,5.81-2.46h12.41c.67,0,1.23.26,1.68.78.45.6.56,1.23.33,1.9-.22.89-.6,2.27-1.12,4.13-.67,2.54-1.2,4.47-1.57,5.81-.3,1.05-.89,1.9-1.79,2.57-.82.67-1.79,1.01-2.9,1.01h-15.88c-1.12,0-1.79.52-2.01,1.56-.3.9-.67,2.24-1.12,4.03-.45,1.57-.78,2.76-1.01,3.58-.22.97,0,1.86.67,2.68.6.74,1.38,1.12,2.35,1.12h16.1c2.24-.23,3.69-1.42,4.36-3.58.15-.52.37-1.26.67-2.23.67-1.86,1.86-2.8,3.58-2.8h22.14c1.56,0,2.83.64,3.8,1.9.97,1.27,1.26,2.68.89,4.25-.45,1.64-1.12,4.06-2.01,7.27-.9,3.43-1.57,6-2.01,7.72-.9,2.39-2.5,3.58-4.81,3.58h-76.04c-1.57,0-2.84-.63-3.8-1.9-1.04-1.27-1.34-2.68-.9-4.25,1.79-6.71,4.47-16.74,8.05-30.08,3.95-14.54,6.89-25.42,8.83-32.65.82-3.28,2.53-5.93,5.14-7.94,2.61-2.01,5.59-3.02,8.95-3.02h47.52c4.03,0,7.46,1.45,10.29,4.36l6.59,6.6c3.88,4.03,5.15,8.72,3.81,14.09l-1.45,5.81c-.74,1.86-1.98,2.79-3.69,2.79h-25.72c-.67,0-1.23-.3-1.68-.89-.38-.52-.48-1.12-.34-1.79l.56-2.24c.52-1.86.11-3.47-1.23-4.81l-6.26-6.26c-1.64-1.57-3.58-2.39-5.81-2.46h-.11c-1.87,0-3.54.56-5.03,1.68-1.57,1.12-2.57,2.65-3.02,4.59Z"/>
    <path class="st0" d="M376.03,91.55c2.09-7.75,5.22-19.46,9.4-35.11,3.35-12.3,5.85-21.51,7.49-27.62.9-3.28,2.61-5.93,5.14-7.94,2.61-2.01,5.59-3.02,8.95-3.02h47.53c4.03,0,7.5,1.45,10.4,4.36l6.6,6.6c3.87,4.03,5.14,8.72,3.8,14.09l-7.38,27.28c-.67,2.46-1.9,4.62-3.69,6.49l-16.77,16.77c-2.9,2.83-6.37,4.25-10.4,4.25h-56.25c-1.64,0-2.95-.63-3.91-1.9-.97-1.27-1.27-2.68-.9-4.25ZM411.37,76.9c-.38,1.94.22,3.32,1.79,4.14,1.49.89,2.98.71,4.47-.56l21.25-21.25c.67-.67,1.12-1.42,1.34-2.23.3-1.2.74-2.94,1.34-5.26.67-2.31,1.16-4.03,1.45-5.14.45-1.86,0-3.47-1.34-4.81l-6.26-6.26c-2.46-2.24-5.14-2.94-8.05-2.13-2.9.75-4.88,2.72-5.93,5.93-2.83,10.59-6.19,23.11-10.06,37.57Z"/>
  </g>
  <g>
    <path class="st1" d="M67.31,63.7c.37-1.71-.08-3.2-1.34-4.47l-6.26-6.26c-2.46-2.24-5.15-2.98-8.05-2.24-2.98.82-4.96,2.8-5.93,5.93-.52,2.01-2.12,7.87-4.81,17.56-.3,1.12-.49,1.94-.56,2.46-4.18,15.51-3.76,13.82-4.58,16.88-.67,1.86-1.87,2.8-3.58,2.8H10.06c-1.64,0-2.94-.67-3.91-2.01-.97-1.27-1.23-2.65-.78-4.14,2.83-10.66,3.69-13.71,8.38-31.08,3.58-13.42,6.15-23.15,7.72-29.19.67-2.53,1.94-4.7,3.8-6.49L42.03,6.66c2.83-2.91,6.3-4.36,10.4-4.36h43.5c3.2,0,6.08.93,8.61,2.8,2.39,1.72,4.1,3.95,5.15,6.71,1.12,2.98,1.27,5.96.45,8.95-.89,3.51-2.09,7.98-3.58,13.42-.22.75-.52,1.83-.89,3.24-4.99,18.64-8.72,32.65-11.18,42.05-.75,1.87-1.98,2.8-3.69,2.8h-22.03c-1.64,0-2.95-.67-3.91-2.01-.97-1.27-1.27-2.65-.89-4.14l3.36-12.41ZM58.59,35.29h12.64c1.12,0,2.09-.33,2.91-1.01.89-.67,1.49-1.56,1.79-2.68l2.24-8.39c.3-1.94-.3-3.32-1.79-4.14-1.49-.89-2.98-.71-4.47.56l-13.98,13.98c-.3.3-.37.64-.22,1.01.15.45.45.67.89.67Z"/>
    <path class="st1" d="M117.11,74.72l-6.26-6.26c-2.46-2.24-5.15-2.98-8.05-2.24-2.91.75-4.88,2.68-5.93,5.81l-5.93,22.03c-.3,1.12-.86,2.01-1.68,2.68-.89.6-1.9.89-3.02.89h-21.25c-1.56,0-2.83-.63-3.8-1.9-.97-1.27-1.27-2.65-.89-4.14,1.49-5.59,3.87-15.1,6.85-26.21,5.44-20.43,9.41-34.59,12.16-44.8.67-1.86,1.86-2.8,3.58-2.8h22.14c1.64,0,2.94.63,3.91,1.9.97,1.34.93,3.72.49,5.21l-5.18,19.73c-.45,1.56-.19,2.98.78,4.25.97,1.27,2.27,1.9,3.91,1.9h14.65c1.49,0,2.53-.82,3.13-2.46l7.5-27.73c.67-1.86,1.86-2.8,3.57-2.8h17.9c2.69,0,4.81,1.08,6.37,3.24,1.64,2.09,2.12,4.44,1.46,7.05-.38,1.27-.72,2.53-1.01,3.8-1.04,3.95-2.64,9.88-4.81,17.78-5.36,20.13-9.39,35.23-12.08,45.29-.75,1.79-1.98,2.68-3.69,2.68h-22.03c-1.64,0-2.95-.63-3.91-1.9-.97-1.27-1.23-2.68-.78-4.25.23-.97.6-2.46,1.12-4.47.97-3.43,1.68-6,2.13-7.72.45-1.79,0-3.32-1.34-4.59Z"/>
  </g>
</svg>