<?xml version="1.0" encoding="UTF-8"?>
<svg id="Layer_1" xmlns="http://www.w3.org/2000/svg" version="1.1" xmlns:xlink="http://www.w3.org/1999/xlink" viewBox="0 0 481 100">
  <!-- Generator: Adobe Illustrator 30.1.0, SVG Export Plug-In . SVG Version: 2.1.1 Build 136)  -->
  <defs>
    <style>
      .st0, .st1 {
        fill: #fff;
      }

      .st1 {
        stroke: #fff;
        stroke-miterlimit: 10;
        stroke-width: 3.8px;
      }
    </style>
  </defs>
  <g>
    <g>
      <path class="st1" d="M152.3,5.5l-21.2,55.9c-.8,2.2.8,4.5,3.1,4.5h10.2c1.4,0,2.7-.9,3.1-2.2l2.4-6.8c.5-1.3,1.7-2.2,3.1-2.2h17.7c1.4,0,2.7.9,3.1,2.2l2.4,6.8c.5,1.3,1.7,2.2,3.1,2.2h10.2c2.3,0,3.9-2.3,3.1-4.5l-21.2-55.9c-.5-1.3-1.7-2.2-3.1-2.2h-13.3c-1.4,0-2.6.9-3.1,2.2ZM154.9,43.1l7.1-21,7.1,21h-14.3Z"/>
      <path class="st1" d="M239.1,27.9h-15.7c-1.8,0-3.3-1.5-3.3-3.3V6.7c0-1.8-1.5-3.3-3.3-3.3h-9.4c-1.8,0-3.3,1.5-3.3,3.3v55.9c0,1.8,1.5,3.3,3.3,3.3h9.4c1.8,0,3.3-1.5,3.3-3.3v-18.8c0-1.8,1.5-3.3,3.3-3.3h15.7c1.8,0,3.3,1.5,3.3,3.3v18.8c0,1.8,1.5,3.3,3.3,3.3h9.4c1.8,0,3.3-1.5,3.3-3.3V6.7c0-1.8-1.5-3.3-3.3-3.3h-9.4c-1.8,0-3.3,1.5-3.3,3.3v17.9c0,1.8-1.5,3.3-3.3,3.3Z"/>
      <path class="st1" d="M306.1,31l-14-25.9c-.6-1.1-1.7-1.8-2.9-1.8h-11.7c-1.8,0-3.3,1.5-3.3,3.3v55.9c0,1.8,1.5,3.3,3.3,3.3h9.4c1.8,0,3.3-1.5,3.3-3.3v-18.7c0-3.4,4.6-4.6,6.3-1.6l5.3,9.5c.6,1.1,1.7,1.7,2.9,1.7h8.6c1.2,0,2.3-.7,2.9-1.7l5.3-9.5c1.7-3,6.3-1.8,6.3,1.6v18.7c0,1.8,1.5,3.3,3.3,3.3h9.4c1.8,0,3.3-1.5,3.3-3.3V6.7c0-1.8-1.5-3.3-3.3-3.3h-11.7c-1.2,0-2.4.7-2.9,1.8l-14,25.9c-1.3,2.3-4.6,2.3-5.9,0Z"/>
      <path class="st1" d="M362.9,65.9h42.9c1.8,0,3.3-1.5,3.3-3.3v-5.8c0-1.8-1.5-3.3-3.3-3.3h-26.8c-1.8,0-3.3-1.5-3.3-3.3v-6.3c0-1.8,1.5-3.3,3.3-3.3h19.7c1.8,0,3.3-1.5,3.3-3.3v-5.8c0-1.8-1.5-3.3-3.3-3.3h-19.7c-1.8,0-3.3-1.5-3.3-3.3v-5.4c0-1.8,1.5-3.3,3.3-3.3h26.8c1.8,0,3.3-1.5,3.3-3.3v-5.8c0-1.8-1.5-3.3-3.3-3.3h-42.9c-1.8,0-3.3,1.5-3.3,3.3v55.9c0,1.8,1.5,3.3,3.3,3.3Z"/>
      <path class="st1" d="M471.4,8.6c-3.5-3.5-8.6-5.2-15.3-5.2h-31.5c-1.8,0-3.3,1.5-3.3,3.3v55.9c0,1.8,1.5,3.3,3.3,3.3h31.5c6.7,0,11.8-1.7,15.3-5.2,3.5-3.5,5.2-8.6,5.2-15.3v-21.5c0-6.7-1.7-11.8-5.2-15.3ZM460.5,42c0,6.3-5.1,11.4-11.4,11.4h-8.5c-1.8,0-3.3-1.5-3.3-3.3v-30.9c0-1.8,1.5-3.3,3.3-3.3h8.5c6.3,0,11.4,5.1,11.4,11.4v14.8Z"/>
    </g>
    <g>
      <path class="st0" d="M128.9,91.2h5.7c0,1.3.3,2.2,1,2.8s1.7.9,3.2.9,1.7-.2,2.2-.6.8-1,.8-1.7-.3-1.5-.9-1.9-1.6-.9-3.1-1.4c-1.5-.5-2.7-1-3.6-1.4-3.1-1.5-4.6-3.6-4.6-6.2s.4-2.5,1.1-3.5c.8-1,1.8-1.8,3.2-2.3s3-.8,4.7-.8,3.2.3,4.6.9c1.3.6,2.4,1.5,3.1,2.6s1.1,2.4,1.1,3.8h-5.7c0-1-.3-1.7-.9-2.2-.6-.5-1.4-.8-2.4-.8s-1.8.2-2.4.7c-.6.4-.9,1-.9,1.7s.3,1.2,1,1.6c.6.5,1.8,1,3.4,1.5,1.6.5,3,1.1,4,1.7,2.5,1.5,3.8,3.5,3.8,6.1s-.8,3.7-2.3,4.9c-1.6,1.2-3.7,1.8-6.4,1.8s-3.6-.3-5.2-1c-1.5-.7-2.7-1.6-3.5-2.8-.8-1.2-1.2-2.6-1.2-4.1Z"/>
      <path class="st0" d="M153,94.3c.6-.5,1.3-.8,2.2-.8s1.6.3,2.2.8c.6.5.9,1.2.9,2s-.3,1.5-.9,2c-.6.5-1.3.8-2.2.8s-1.6-.3-2.2-.8c-.6-.5-.8-1.2-.8-2s.3-1.4.9-2Z"/>
      <path class="st0" d="M172.9,86.4c0-2.3.4-4.3,1.2-6.1.8-1.7,2-3.1,3.5-4s3.3-1.4,5.3-1.4c2.9,0,5.2.7,6.8,2,1.6,1.3,2.6,3.3,2.8,6h-5.5c-.2-1.3-.6-2.3-1.3-2.8s-1.6-.8-2.8-.8-2.5.6-3.3,1.8c-.8,1.2-1.2,2.9-1.2,5.2v1.4c0,2.4.4,4.1,1.2,5.3.8,1.2,2.1,1.8,3.8,1.8s2.6-.3,3.3-1v-3.7h-3.9v-3.9h9.6v9.7c-.9,1-2.2,1.8-3.8,2.3s-3.5.9-5.5.9c-3.1,0-5.5-.9-7.4-2.8-1.8-1.9-2.8-4.5-3-7.9v-2Z"/>
      <path class="st0" d="M206.8,75.3c2.8,0,5,.6,6.6,1.9,1.6,1.2,2.4,3,2.4,5.3s-.3,3-1,4.1c-.7,1.1-1.7,2-3.1,2.6l4.9,9.5v.2h-6.1l-4.2-8.3h-3.1v8.3h-5.7v-23.6h9.3ZM203.2,86.2h3.6c1.1,0,1.9-.3,2.4-.8.5-.6.8-1.4.8-2.4s-.3-1.8-.8-2.4c-.5-.6-1.4-.9-2.4-.9h-3.6v6.5Z"/>
      <path class="st0" d="M227.6,75.3h5.3l8.7,23.6h-6.1l-1.4-4.4h-7.8l-1.4,4.4h-6.1l8.6-23.6ZM232.8,90.1l-2.5-8.2-2.5,8.2h5.1Z"/>
      <path class="st0" d="M245,98.9v-23.6h9.4c1.8,0,3.4.3,4.8,1s2.5,1.6,3.2,2.8c.8,1.2,1.1,2.6,1.1,4.2,0,2.3-.8,4.1-2.5,5.5-1.6,1.4-3.9,2.1-6.8,2.1h-3.6v8h-5.7ZM250.6,86.5h3.7c1.1,0,1.9-.3,2.5-.8s.9-1.3.9-2.3-.3-2-.9-2.6c-.6-.7-1.4-1-2.4-1h-3.8v6.8Z"/>
      <path class="st0" d="M268.1,98.9v-23.6h5.7v9.3h8.4v-9.3h5.6v23.6h-5.6v-9.8h-8.4v9.8h-5.7Z"/>
      <path class="st0" d="M299.1,98.9h-5.7v-23.6h5.7v23.6Z"/>
      <path class="st0" d="M304,86.4c0-2.3.4-4.3,1.2-6.1.8-1.7,2-3.1,3.5-4,1.5-.9,3.3-1.4,5.2-1.4,2.9,0,5.2.8,6.9,2.3,1.7,1.5,2.7,3.6,3,6.2h-5.7c0-1.4-.4-2.5-1.1-3.1-.7-.6-1.7-.9-3.1-.9s-2.4.5-3.1,1.6c-.7,1.1-1,2.7-1,5.1v1.7c0,2.5.3,4.3.9,5.4s1.7,1.6,3.3,1.6,2.3-.3,3-.9c.7-.6,1.1-1.6,1.1-2.9h5.6c0,1.6-.5,3.1-1.3,4.3-.8,1.3-1.9,2.2-3.4,2.9-1.5.7-3.1,1-5,1-3.1,0-5.5-1-7.3-3s-2.7-4.9-2.7-8.5v-1.2Z"/>
      <path class="st0" d="M337.7,98.9v-23.6h7.6c2.1,0,4,.5,5.6,1.4,1.7.9,3,2.3,3.9,4,.9,1.7,1.4,3.6,1.4,5.8v1.1c0,2.2-.5,4.1-1.4,5.8s-2.2,3-3.8,4-3.5,1.5-5.5,1.5h-7.7ZM343.4,79.7v14.8h2c1.6,0,2.9-.6,3.8-1.7.9-1.2,1.3-2.9,1.3-5.2v-1c0-2.3-.4-4-1.3-5.1-.9-1.2-2.1-1.7-3.8-1.7h-1.9Z"/>
      <path class="st0" d="M377,75.3v4.4h-10.6v5h8.9v4.2h-8.9v5.6h10.5v4.4h-16.2v-23.6h16.3Z"/>
      <path class="st0" d="M380.2,91.2h5.7c0,1.3.3,2.2,1,2.8.7.6,1.7.9,3.2.9s1.7-.2,2.2-.6c.5-.4.8-1,.8-1.7s-.3-1.5-.9-1.9c-.6-.5-1.6-.9-3.1-1.4s-2.7-1-3.6-1.4c-3.1-1.5-4.6-3.6-4.6-6.2s.4-2.5,1.1-3.5c.8-1,1.8-1.8,3.2-2.3,1.4-.6,3-.8,4.7-.8s3.2.3,4.6.9c1.3.6,2.4,1.5,3.1,2.6.7,1.1,1.1,2.4,1.1,3.8h-5.7c0-1-.3-1.7-.9-2.2s-1.4-.8-2.4-.8-1.8.2-2.4.7c-.6.4-.9,1-.9,1.7s.3,1.2,1,1.6c.6.5,1.8,1,3.4,1.5,1.6.5,3,1.1,4,1.7,2.5,1.5,3.8,3.5,3.8,6.1s-.8,3.7-2.3,4.9-3.7,1.8-6.4,1.8-3.6-.3-5.2-1c-1.5-.7-2.7-1.6-3.5-2.8-.8-1.2-1.2-2.6-1.2-4.1Z"/>
      <path class="st0" d="M409.4,98.9h-5.7v-23.6h5.7v23.6Z"/>
      <path class="st0" d="M414.5,86.4c0-2.3.4-4.3,1.2-6.1.8-1.7,2-3.1,3.5-4,1.5-.9,3.3-1.4,5.3-1.4,2.9,0,5.2.7,6.8,2,1.6,1.3,2.6,3.3,2.8,6h-5.5c-.2-1.3-.6-2.3-1.3-2.8s-1.6-.8-2.8-.8-2.5.6-3.3,1.8c-.8,1.2-1.2,2.9-1.2,5.2v1.4c0,2.4.4,4.1,1.2,5.3.8,1.2,2.1,1.8,3.8,1.8s2.6-.3,3.3-1v-3.7h-3.9v-3.9h9.6v9.7c-.9,1-2.2,1.8-3.8,2.3-1.7.6-3.5.9-5.5.9-3.1,0-5.5-.9-7.4-2.8-1.8-1.9-2.8-4.5-3-7.9v-2Z"/>
      <path class="st0" d="M455.4,75.3v4.4h-10.6v5h8.9v4.2h-8.9v5.6h10.5v4.4h-16.2v-23.6h16.3Z"/>
      <path class="st0" d="M468.6,75.3c2.8,0,5,.6,6.6,1.9,1.6,1.2,2.4,3,2.4,5.3s-.3,3-1,4.1c-.7,1.1-1.7,2-3.1,2.6l4.9,9.5v.2h-6.1l-4.2-8.3h-3.1v8.3h-5.7v-23.6h9.3ZM465,86.2h3.6c1.1,0,1.9-.3,2.4-.8.5-.6.8-1.4.8-2.4s-.3-1.8-.8-2.4-1.4-.9-2.4-.9h-3.6v6.5Z"/>
    </g>
  </g>
  <image width="918" height="836" transform="translate(.2 0) scale(.1)" xlink:href="D:\Document\my website\logo Ahmed glass.png"/>
</svg>