<?xml version="1.0" encoding="UTF-8"?>
<svg id="Layer_1" xmlns="http://www.w3.org/2000/svg" version="1.1" viewBox="0 0 50 50">
  <!-- Generator: Adobe Illustrator 30.1.0, SVG Export Plug-In . SVG Version: 2.1.1 Build 136)  -->
  <defs>
    <style>
      .st0 {
        fill: #fff;
      }
    </style>
  </defs>
  <path class="st0" d="M29.14,32.44c.16-.89-.03-1.66-.59-2.32l-2.75-3.24c-1.08-1.16-2.26-1.54-3.54-1.16-1.31.43-2.18,1.45-2.61,3.07-.23,1.04-.93,4.07-2.12,9.09-.13.58-.21,1-.25,1.27-1.84,8.03-1.65,7.16-2.02,8.74-.3.96-.82,1.45-1.57,1.45H3.95c-.72,0-1.29-.35-1.72-1.04-.43-.66-.54-1.37-.34-2.14,1.25-5.52,1.62-7.1,3.69-16.09,1.57-6.95,2.71-11.99,3.39-15.11.3-1.31.85-2.43,1.67-3.36l7.38-8.68c1.25-1.51,2.77-2.26,4.57-2.26h19.13c1.41,0,2.67.48,3.79,1.45,1.05.89,1.8,2.05,2.26,3.47.49,1.54.56,3.09.2,4.63-.39,1.81-.92,4.13-1.57,6.95-.1.39-.23.95-.39,1.68-2.2,9.65-3.84,16.91-4.92,21.77-.33.97-.87,1.45-1.62,1.45h-9.69c-.72,0-1.3-.35-1.72-1.04-.43-.66-.56-1.37-.39-2.14l1.48-6.43ZM25.3,17.73h5.56c.49,0,.92-.17,1.28-.52.39-.35.66-.81.79-1.39l.98-4.34c.13-1-.13-1.72-.79-2.14-.66-.46-1.31-.37-1.97.29l-6.15,7.24c-.13.15-.16.33-.1.52.06.23.2.35.39.35Z"/>
</svg>